<?xml version="1.0" encoding="UTF-8"?>
<svg id="Layer_2" data-name="Layer 2" xmlns="http://www.w3.org/2000/svg" viewBox="0 0 143.72 164.07">
  <g id="Layer_1-2" data-name="Layer 1">
    <g>
      <polygon points="93.64 10.72 75.12 0 75.12 86.74 68.6 82.97 68.6 0 51.97 9.6 50.08 10.63 50.08 93.66 93.64 118.82 93.64 10.72"/>
      <polygon points="125.2 28.9 125.2 72.29 118.68 68.52 118.68 25.14 100.16 14.44 100.16 122.58 118.68 133.27 118.68 89.9 125.2 93.67 125.2 133.27 143.72 122.57 143.72 39.6 125.2 28.9"/>
      <path d="m43.56,79.19V14.44L0,39.6v82.97l18.52,10.72v-28.94l78.38,45.25,18.52-10.7L27.78,88.32l15.78-9.12Zm-18.52-32.67v21.98l-6.52,3.78v-22l6.52-3.76Z"/>
      <polygon points="25.04 137.03 71.86 164.07 90.37 153.37 25.04 115.66 25.04 137.03"/>
    </g>
  </g>
</svg>